<?xml version="1.0" encoding="UTF-8"?>
<svg width="800" height="600" viewBox="0 0 800 600" fill="none" xmlns="http://www.w3.org/2000/svg">
  <!-- Background with gradient -->
  <defs>
    <linearGradient id="bgGradient" x1="0" y1="0" x2="800" y2="600" gradientUnits="userSpaceOnUse">
      <stop offset="0%" stop-color="#1a1a2e"/>
      <stop offset="100%" stop-color="#16213e"/>
    </linearGradient>
    <filter id="glow" x="-20%" y="-20%" width="140%" height="140%">
      <feGaussianBlur stdDeviation="10" result="blur"/>
      <feComposite in="SourceGraphic" in2="blur" operator="over"/>
    </filter>
  </defs>
  
  <!-- Background -->
  <rect width="800" height="600" fill="url(#bgGradient)"/>
  
  <!-- Spotlight effect -->
  <circle cx="400" cy="300" r="250" fill="url(#spotlightGradient)" opacity="0.3"/>
  <defs>
    <radialGradient id="spotlightGradient" cx="50%" cy="50%" r="50%" gradientUnits="userSpaceOnUse">
      <stop offset="0%" stop-color="#8b5cf6" stop-opacity="0.3"/>
      <stop offset="100%" stop-color="#3b82f6" stop-opacity="0"/>
    </radialGradient>
  </defs>
  
  <!-- Actor silhouette -->
  <path d="M400 150 C 350 150, 300 200, 300 300 C 300 400, 350 450, 400 450 C 450 450, 500 400, 500 300 C 500 200, 450 150, 400 150" 
        fill="#4f46e5" filter="url(#glow)"/>
  
  <!-- Stage floor with perspective -->
  <path d="M200 450 L 600 450 L 500 550 L 300 550 Z" fill="#1e1b4b"/>
  
  <!-- Neon accents -->
  <circle cx="400" cy="200" r="5" fill="#8b5cf6" filter="url(#glow)"/>
  <circle cx="380" cy="220" r="3" fill="#3b82f6" filter="url(#glow)"/>
  <circle cx="420" cy="220" r="3" fill="#3b82f6" filter="url(#glow)"/>
  
  <!-- Decorative elements -->
  <rect x="350" y="100" width="100" height="2" fill="#8b5cf6" filter="url(#glow)"/>
  <rect x="350" y="500" width="100" height="2" fill="#3b82f6" filter="url(#glow)"/>
</svg> 