<?xml version="1.0" encoding="UTF-8"?>
<svg width="800" height="600" viewBox="0 0 800 600" fill="none" xmlns="http://www.w3.org/2000/svg">
  <!-- Background with gradient -->
  <defs>
    <linearGradient id="bgGradient" x1="0" y1="0" x2="800" y2="600" gradientUnits="userSpaceOnUse">
      <stop offset="0%" stop-color="#1a1a2e"/>
      <stop offset="100%" stop-color="#16213e"/>
    </linearGradient>
    <filter id="glow" x="-20%" y="-20%" width="140%" height="140%">
      <feGaussianBlur stdDeviation="10" result="blur"/>
      <feComposite in="SourceGraphic" in2="blur" operator="over"/>
    </filter>
  </defs>
  
  <!-- Background -->
  <rect width="800" height="600" fill="url(#bgGradient)"/>
  
  <!-- Film set elements -->
  <rect x="200" y="200" width="400" height="300" fill="#1e1b4b" stroke="#4f46e5" stroke-width="2"/>
  
  <!-- Camera equipment -->
  <path d="M300 250 L 500 250 L 450 300 L 350 300 Z" fill="#4f46e5" filter="url(#glow)"/>
  <circle cx="400" cy="275" r="20" fill="#3b82f6" filter="url(#glow)"/>
  
  <!-- Director silhouette -->
  <path d="M350 350 C 350 300, 400 280, 450 350" 
        fill="#4f46e5" filter="url(#glow)"/>
  
  <!-- Modern equipment elements -->
  <rect x="250" y="400" width="300" height="20" fill="#1e1b4b" stroke="#8b5cf6" stroke-width="2"/>
  <circle cx="270" cy="410" r="5" fill="#8b5cf6" filter="url(#glow)"/>
  <circle cx="300" cy="410" r="5" fill="#3b82f6" filter="url(#glow)"/>
  <circle cx="330" cy="410" r="5" fill="#8b5cf6" filter="url(#glow)"/>
  
  <!-- Neon grid lines -->
  <line x1="200" y1="200" x2="600" y2="200" stroke="#8b5cf6" stroke-width="1" opacity="0.5"/>
  <line x1="200" y1="300" x2="600" y2="300" stroke="#3b82f6" stroke-width="1" opacity="0.5"/>
  <line x1="200" y1="400" x2="600" y2="400" stroke="#8b5cf6" stroke-width="1" opacity="0.5"/>
  <line x1="200" y1="500" x2="600" y2="500" stroke="#3b82f6" stroke-width="1" opacity="0.5"/>
  
  <!-- Decorative elements -->
  <circle cx="400" cy="150" r="10" fill="#8b5cf6" filter="url(#glow)"/>
  <circle cx="400" cy="550" r="10" fill="#3b82f6" filter="url(#glow)"/>
</svg> 